<svg width="30" height="30" viewBox="0 0 30 30" fill="none" xmlns="http://www.w3.org/2000/svg">
<g clip-path="url(#clip0_2434_254)">
<path d="M26.8749 0.75H3.12499C2.49534 0.750754 1.89169 1.00122 1.44645 1.44645C1.00122 1.89169 0.750754 2.49534 0.75 3.12499L0.75 22.5999C0.750754 23.2296 1.00122 23.8332 1.44645 24.2785C1.89169 24.7237 2.49534 24.9742 3.12499 24.9749C3.12499 25.4788 3.32517 25.9621 3.68149 26.3184C4.0378 26.6747 4.52108 26.8749 5.02499 26.8749H11.588L14.0025 28.8879C14.2822 29.1218 14.6353 29.25 15 29.25C15.3646 29.25 15.7177 29.1218 15.9974 28.8879L18.4119 26.8749H24.9749C25.4788 26.8749 25.9621 26.6747 26.3184 26.3184C26.6747 25.9621 26.8749 25.4788 26.8749 24.9749C27.5046 24.9742 28.1082 24.7237 28.5534 24.2785C28.9987 23.8332 29.2491 23.2296 29.2499 22.5999V3.12499C29.2491 2.49534 28.9987 1.89169 28.5534 1.44645C28.1082 1.00122 27.5046 0.750754 26.8749 0.75ZM3.12499 1.7H26.8749C27.2528 1.7 27.6153 1.85013 27.8825 2.11737C28.1498 2.38461 28.2999 2.74706 28.2999 3.12499V4.54999H1.7V3.12499C1.7 2.74706 1.85013 2.38461 2.11737 2.11737C2.38461 1.85013 2.74706 1.7 3.12499 1.7ZM25.9249 24.9749C25.9249 25.2269 25.8248 25.4685 25.6467 25.6467C25.4685 25.8248 25.2269 25.9249 24.9749 25.9249H18.4119C18.1893 25.9249 17.9738 26.0031 17.8029 26.1458L15.389 28.1574C15.2799 28.2488 15.1422 28.2989 15 28.2989C14.8577 28.2989 14.72 28.2488 14.6109 28.1574L12.1975 26.1467C12.0266 26.0036 11.8109 25.9251 11.588 25.9249H5.02499C4.77303 25.9249 4.53139 25.8248 4.35324 25.6467C4.17508 25.4685 4.07499 25.2269 4.07499 24.9749V16.4249C4.07499 16.173 4.17508 15.9314 4.35324 15.7532C4.53139 15.575 4.77303 15.4749 5.02499 15.4749H24.9749C25.2269 15.4749 25.4685 15.575 25.6467 15.7532C25.8248 15.9314 25.9249 16.173 25.9249 16.4249V24.9749ZM26.8749 24.0249V16.4249C26.8749 15.921 26.6747 15.4378 26.3184 15.0814C25.9621 14.7251 25.4788 14.525 24.9749 14.525H5.02499C4.52108 14.525 4.0378 14.7251 3.68149 15.0814C3.32517 15.4378 3.12499 15.921 3.12499 16.4249V24.0249C2.74706 24.0249 2.38461 23.8748 2.11737 23.6075C1.85013 23.3403 1.7 22.9779 1.7 22.5999V5.49998H28.2999V22.5999C28.2999 22.9779 28.1498 23.3403 27.8825 23.6075C27.6153 23.8748 27.2528 24.0249 26.8749 24.0249Z" fill="url(#paint0_linear_2434_254)"/>
<path d="M17.0442 19.2799L16.2234 19.1536L15.8733 18.4017C15.7967 18.2362 15.6744 18.0962 15.5208 17.998C15.3672 17.8998 15.1887 17.8477 15.0064 17.8477C14.8241 17.8477 14.6456 17.8998 14.492 17.998C14.3384 18.0962 14.2161 18.2362 14.1396 18.4017L13.7895 19.1536L12.9687 19.2799C12.7946 19.3072 12.6314 19.3818 12.4969 19.4956C12.3623 19.6094 12.2616 19.7579 12.2058 19.925C12.15 20.0922 12.1411 20.2714 12.1803 20.4432C12.2194 20.615 12.305 20.7727 12.4277 20.8992L13.0532 21.5447L12.9107 22.4315C12.8804 22.6094 12.901 22.7921 12.9702 22.9587C13.0394 23.1253 13.1543 23.2689 13.3016 23.3729C13.449 23.477 13.6228 23.5372 13.8029 23.5466C13.9831 23.556 14.1622 23.5143 14.3196 23.4262L15.0098 23.0462L15.6952 23.4262C15.8526 23.5136 16.0314 23.5548 16.2112 23.5452C16.391 23.5355 16.5644 23.4753 16.7115 23.3716C16.8586 23.2678 16.9735 23.1246 17.0429 22.9585C17.1124 22.7924 17.1335 22.6101 17.104 22.4325L16.9615 21.5452L17.5866 20.9001C17.7094 20.7737 17.7952 20.616 17.8344 20.4442C17.8736 20.2723 17.8648 20.093 17.8091 19.9258C17.7533 19.7587 17.6526 19.61 17.518 19.4962C17.3835 19.3824 17.2202 19.3077 17.0461 19.2804L17.0442 19.2799ZM16.1113 21.0555C16.06 21.1085 16.0218 21.1728 15.9997 21.2433C15.9776 21.3137 15.9722 21.3883 15.984 21.4611L16.1564 22.5978L15.4715 22.2178C15.3295 22.1382 15.1694 22.0963 15.0067 22.0963C14.8439 22.0963 14.6838 22.1382 14.5419 22.2178L13.8479 22.5873L14.0289 21.4649C14.0406 21.3921 14.0352 21.3175 14.0132 21.2471C13.9911 21.1766 13.9529 21.1123 13.9016 21.0593L13.1136 20.2223L14.1852 20.058C14.2623 20.0459 14.3353 20.0151 14.3977 19.9681C14.4601 19.9211 14.5099 19.8595 14.5428 19.7886L15.0093 18.7978L15.0126 18.8035L15.47 19.7858C15.5029 19.8566 15.5528 19.9183 15.6151 19.9652C15.6775 20.0122 15.7505 20.0431 15.8277 20.0551L16.9021 20.2394L16.1113 21.0555Z" fill="url(#paint1_linear_2434_254)"/>
<path d="M10.3879 19.2799L9.56713 19.1536L9.21705 18.4017C9.14048 18.2362 9.01817 18.0962 8.86457 17.998C8.71096 17.8998 8.53247 17.8477 8.35018 17.8477C8.16789 17.8477 7.9894 17.8998 7.83579 17.998C7.68219 18.0962 7.55988 18.2362 7.48331 18.4017L7.13323 19.1536L6.31244 19.2799C6.13837 19.3072 5.97515 19.3818 5.84061 19.4956C5.70607 19.6094 5.60539 19.7579 5.54955 19.925C5.49371 20.0922 5.48488 20.2714 5.524 20.4432C5.56313 20.615 5.64872 20.7727 5.77141 20.8992L6.39699 21.5447L6.25449 22.4315C6.22416 22.6094 6.24477 22.7921 6.31395 22.9587C6.38312 23.1253 6.49803 23.2689 6.64538 23.3729C6.79274 23.477 6.96653 23.5372 7.14667 23.5466C7.3268 23.556 7.50593 23.5143 7.66333 23.4262L8.3535 23.0462L9.03893 23.4262C9.19632 23.5136 9.37518 23.5548 9.55496 23.5452C9.73474 23.5355 9.90815 23.4753 10.0553 23.3716C10.2024 23.2678 10.3173 23.1246 10.3867 22.9585C10.4561 22.7924 10.4773 22.6101 10.4478 22.4325L10.3053 21.5452L10.9304 20.9001C11.0532 20.7737 11.1389 20.616 11.1781 20.4442C11.2174 20.2723 11.2086 20.093 11.1528 19.9258C11.097 19.7587 10.9963 19.61 10.8618 19.4962C10.7272 19.3824 10.5639 19.3077 10.3898 19.2804L10.3879 19.2799ZM9.45503 21.0555C9.40375 21.1085 9.36555 21.1728 9.34346 21.2433C9.32136 21.3137 9.31597 21.3883 9.32773 21.4611L9.50015 22.5978L8.8152 22.2178C8.67324 22.1382 8.51319 22.0963 8.35042 22.0963C8.18764 22.0963 8.0276 22.1382 7.88563 22.2178L7.19166 22.5873L7.37263 21.4649C7.38438 21.3921 7.379 21.3175 7.3569 21.2471C7.33481 21.1766 7.29661 21.1123 7.24533 21.0593L6.45731 20.2223L7.52891 20.058C7.60607 20.0459 7.67908 20.0151 7.74147 19.9681C7.80386 19.9211 7.8537 19.8595 7.88658 19.7886L8.35303 18.7978L8.35635 18.8035L8.81378 19.7858C8.84666 19.8566 8.8965 19.9183 8.95889 19.9652C9.02128 20.0122 9.09429 20.0431 9.17145 20.0551L10.2459 20.2394L9.45503 21.0555Z" fill="url(#paint2_linear_2434_254)"/>
<path d="M23.6848 19.2799L22.864 19.1536L22.5139 18.4017C22.4374 18.2362 22.315 18.0962 22.1614 17.998C22.0078 17.8998 21.8293 17.8477 21.6471 17.8477C21.4648 17.8477 21.2863 17.8998 21.1327 17.998C20.9791 18.0962 20.8568 18.2362 20.7802 18.4017L20.4301 19.1536L19.6093 19.2799C19.4352 19.3072 19.272 19.3818 19.1375 19.4956C19.0029 19.6094 18.9023 19.7579 18.8464 19.925C18.7906 20.0922 18.7818 20.2714 18.8209 20.4432C18.86 20.615 18.9456 20.7727 19.0683 20.8992L19.6939 21.5447L19.5514 22.4315C19.521 22.6094 19.5416 22.7921 19.6108 22.9587C19.68 23.1253 19.7949 23.2689 19.9423 23.3729C20.0896 23.477 20.2634 23.5372 20.4435 23.5466C20.6237 23.556 20.8028 23.5143 20.9602 23.4262L21.6504 23.0462L22.3358 23.4262C22.4932 23.5136 22.6721 23.5548 22.8518 23.5452C23.0316 23.5355 23.205 23.4753 23.3521 23.3716C23.4993 23.2678 23.6141 23.1246 23.6836 22.9585C23.753 22.7924 23.7742 22.6101 23.7446 22.4325L23.6021 21.5452L24.2272 20.9001C24.3501 20.7737 24.4358 20.616 24.475 20.4442C24.5142 20.2723 24.5055 20.093 24.4497 19.9258C24.3939 19.7587 24.2932 19.61 24.1586 19.4962C24.0241 19.3824 23.8608 19.3077 23.6867 19.2804L23.6848 19.2799ZM22.7519 21.0555C22.7006 21.1085 22.6624 21.1728 22.6403 21.2433C22.6182 21.3137 22.6128 21.3883 22.6246 21.4611L22.797 22.5978L22.1121 22.2178C21.9701 22.1382 21.8101 22.0963 21.6473 22.0963C21.4845 22.0963 21.3245 22.1382 21.1825 22.2178L20.4885 22.5873L20.6695 21.4649C20.6813 21.3921 20.6759 21.3175 20.6538 21.2471C20.6317 21.1766 20.5935 21.1123 20.5422 21.0593L19.7542 20.2223L20.8258 20.058C20.9029 20.0459 20.976 20.0151 21.0383 19.9681C21.1007 19.9211 21.1506 19.8595 21.1835 19.7886L21.6499 18.7978L21.6532 18.8035L22.1107 19.7858C22.1435 19.8566 22.1934 19.9183 22.2558 19.9652C22.3182 20.0122 22.3912 20.0431 22.4683 20.0551L23.5428 20.2394L22.7519 21.0555Z" fill="url(#paint3_linear_2434_254)"/>
<path d="M3.12344 3.59843H3.59843C3.72441 3.59843 3.84523 3.54839 3.93431 3.45931C4.02339 3.37023 4.07343 3.24941 4.07343 3.12344C4.07343 2.99746 4.02339 2.87664 3.93431 2.78756C3.84523 2.69848 3.72441 2.64844 3.59843 2.64844H3.12344C2.99746 2.64844 2.87664 2.69848 2.78756 2.78756C2.69848 2.87664 2.64844 2.99746 2.64844 3.12344C2.64844 3.24941 2.69848 3.37023 2.78756 3.45931C2.87664 3.54839 2.99746 3.59843 3.12344 3.59843Z" fill="url(#paint4_linear_2434_254)"/>
<path d="M5.50625 3.59843H5.98125C6.10722 3.59843 6.22804 3.54839 6.31712 3.45931C6.4062 3.37023 6.45624 3.24941 6.45624 3.12344C6.45624 2.99746 6.4062 2.87664 6.31712 2.78756C6.22804 2.69848 6.10722 2.64844 5.98125 2.64844H5.50625C5.38027 2.64844 5.25945 2.69848 5.17037 2.78756C5.08129 2.87664 5.03125 2.99746 5.03125 3.12344C5.03125 3.24941 5.08129 3.37023 5.17037 3.45931C5.25945 3.54839 5.38027 3.59843 5.50625 3.59843Z" fill="url(#paint5_linear_2434_254)"/>
<path d="M7.87344 3.59843H8.34843C8.47441 3.59843 8.59523 3.54839 8.68431 3.45931C8.77339 3.37023 8.82343 3.24941 8.82343 3.12344C8.82343 2.99746 8.77339 2.87664 8.68431 2.78756C8.59523 2.69848 8.47441 2.64844 8.34843 2.64844H7.87344C7.74746 2.64844 7.62664 2.69848 7.53756 2.78756C7.44848 2.87664 7.39844 2.99746 7.39844 3.12344C7.39844 3.24941 7.44848 3.37023 7.53756 3.45931C7.62664 3.54839 7.74746 3.59843 7.87344 3.59843Z" fill="url(#paint6_linear_2434_254)"/>
<path d="M23.0766 3.59843H26.8765C27.0025 3.59843 27.1233 3.54839 27.2124 3.45931C27.3015 3.37023 27.3515 3.24941 27.3515 3.12344C27.3515 2.99746 27.3015 2.87664 27.2124 2.78756C27.1233 2.69848 27.0025 2.64844 26.8765 2.64844H23.0766C22.9506 2.64844 22.8298 2.69848 22.7407 2.78756C22.6516 2.87664 22.6016 2.99746 22.6016 3.12344C22.6016 3.24941 22.6516 3.37023 22.7407 3.45931C22.8298 3.54839 22.9506 3.59843 23.0766 3.59843Z" fill="url(#paint7_linear_2434_254)"/>
<path d="M6.45156 8.825H10.2515C10.3775 8.825 10.4983 8.77495 10.5874 8.68587C10.6765 8.59679 10.7265 8.47598 10.7265 8.35C10.7265 8.22402 10.6765 8.1032 10.5874 8.01412C10.4983 7.92504 10.3775 7.875 10.2515 7.875H6.45156C6.32558 7.875 6.20477 7.92504 6.11569 8.01412C6.02661 8.1032 5.97656 8.22402 5.97656 8.35C5.97656 8.47598 6.02661 8.59679 6.11569 8.68587C6.20477 8.77495 6.32558 8.825 6.45156 8.825Z" fill="url(#paint8_linear_2434_254)"/>
<path d="M14.5265 11.6758H6.45156C6.32558 11.6758 6.20477 11.7258 6.11569 11.8149C6.02661 11.904 5.97656 12.0248 5.97656 12.1508C5.97656 12.2768 6.02661 12.3976 6.11569 12.4867C6.20477 12.5757 6.32558 12.6258 6.45156 12.6258H14.5265C14.6525 12.6258 14.7733 12.5757 14.8624 12.4867C14.9515 12.3976 15.0015 12.2768 15.0015 12.1508C15.0015 12.0248 14.9515 11.904 14.8624 11.8149C14.7733 11.7258 14.6525 11.6758 14.5265 11.6758Z" fill="url(#paint9_linear_2434_254)"/>
<path d="M6.45156 10.7234H6.92656C7.05254 10.7234 7.17335 10.6734 7.26243 10.5843C7.35151 10.4952 7.40156 10.3744 7.40156 10.2484C7.40156 10.1225 7.35151 10.0016 7.26243 9.91256C7.17335 9.82348 7.05254 9.77344 6.92656 9.77344H6.45156C6.32558 9.77344 6.20477 9.82348 6.11569 9.91256C6.02661 10.0016 5.97656 10.1225 5.97656 10.2484C5.97656 10.3744 6.02661 10.4952 6.11569 10.5843C6.20477 10.6734 6.32558 10.7234 6.45156 10.7234Z" fill="url(#paint10_linear_2434_254)"/>
<path d="M23.5516 7.875H23.0766C22.9506 7.875 22.8298 7.92504 22.7407 8.01412C22.6516 8.1032 22.6016 8.22402 22.6016 8.35C22.6016 8.47598 22.6516 8.59679 22.7407 8.68587C22.8298 8.77495 22.9506 8.825 23.0766 8.825H23.5516C23.6775 8.825 23.7984 8.77495 23.8874 8.68587C23.9765 8.59679 24.0266 8.47598 24.0266 8.35C24.0266 8.22402 23.9765 8.1032 23.8874 8.01412C23.7984 7.92504 23.6775 7.875 23.5516 7.875Z" fill="url(#paint11_linear_2434_254)"/>
<path d="M12.1547 8.825H21.1797C21.3056 8.825 21.4264 8.77495 21.5155 8.68587C21.6046 8.59679 21.6547 8.47598 21.6547 8.35C21.6547 8.22402 21.6046 8.1032 21.5155 8.01412C21.4264 7.92504 21.3056 7.875 21.1797 7.875H12.1547C12.0287 7.875 11.9079 7.92504 11.8188 8.01412C11.7297 8.1032 11.6797 8.22402 11.6797 8.35C11.6797 8.47598 11.7297 8.59679 11.8188 8.68587C11.9079 8.77495 12.0287 8.825 12.1547 8.825Z" fill="url(#paint12_linear_2434_254)"/>
<path d="M23.5515 9.77344H8.82656C8.70058 9.77344 8.57977 9.82348 8.49069 9.91256C8.40161 10.0016 8.35156 10.1225 8.35156 10.2484C8.35156 10.3744 8.40161 10.4952 8.49069 10.5843C8.57977 10.6734 8.70058 10.7234 8.82656 10.7234H23.5515C23.6775 10.7234 23.7983 10.6734 23.8874 10.5843C23.9765 10.4952 24.0265 10.3744 24.0265 10.2484C24.0265 10.1225 23.9765 10.0016 23.8874 9.91256C23.7983 9.82348 23.6775 9.77344 23.5515 9.77344Z" fill="url(#paint13_linear_2434_254)"/>
</g>
<defs>
<linearGradient id="paint0_linear_2434_254" x1="0.75" y1="15" x2="29.2499" y2="15" gradientUnits="userSpaceOnUse">
<stop stop-color="#2aa2ff"/>
<stop offset="1" stop-color="#1b75bb"/>
</linearGradient>
<linearGradient id="paint1_linear_2434_254" x1="12.1562" y1="20.6978" x2="17.8585" y2="20.6978" gradientUnits="userSpaceOnUse">
<stop stop-color="#2aa2ff"/>
<stop offset="1" stop-color="#1b75bb"/>
</linearGradient>
<linearGradient id="paint2_linear_2434_254" x1="5.5" y1="20.6978" x2="11.2022" y2="20.6978" gradientUnits="userSpaceOnUse">
<stop stop-color="#2aa2ff"/>
<stop offset="1" stop-color="#1b75bb"/>
</linearGradient>
<linearGradient id="paint3_linear_2434_254" x1="18.7969" y1="20.6978" x2="24.4991" y2="20.6978" gradientUnits="userSpaceOnUse">
<stop stop-color="#2aa2ff"/>
<stop offset="1" stop-color="#1b75bb"/>
</linearGradient>
<linearGradient id="paint4_linear_2434_254" x1="2.64844" y1="3.12344" x2="4.07343" y2="3.12344" gradientUnits="userSpaceOnUse">
<stop stop-color="#2aa2ff"/>
<stop offset="1" stop-color="#1b75bb"/>
</linearGradient>
<linearGradient id="paint5_linear_2434_254" x1="5.03125" y1="3.12344" x2="6.45624" y2="3.12344" gradientUnits="userSpaceOnUse">
<stop stop-color="#2aa2ff"/>
<stop offset="1" stop-color="#1b75bb"/>
</linearGradient>
<linearGradient id="paint6_linear_2434_254" x1="7.39844" y1="3.12344" x2="8.82343" y2="3.12344" gradientUnits="userSpaceOnUse">
<stop stop-color="#2aa2ff"/>
<stop offset="1" stop-color="#1b75bb"/>
</linearGradient>
<linearGradient id="paint7_linear_2434_254" x1="22.6016" y1="3.12344" x2="27.3515" y2="3.12344" gradientUnits="userSpaceOnUse">
<stop stop-color="#2aa2ff"/>
<stop offset="1" stop-color="#1b75bb"/>
</linearGradient>
<linearGradient id="paint8_linear_2434_254" x1="5.97656" y1="8.35" x2="10.7265" y2="8.35" gradientUnits="userSpaceOnUse">
<stop stop-color="#2aa2ff"/>
<stop offset="1" stop-color="#1b75bb"/>
</linearGradient>
<linearGradient id="paint9_linear_2434_254" x1="5.97656" y1="12.1508" x2="15.0015" y2="12.1508" gradientUnits="userSpaceOnUse">
<stop stop-color="#2aa2ff"/>
<stop offset="1" stop-color="#1b75bb"/>
</linearGradient>
<linearGradient id="paint10_linear_2434_254" x1="5.97656" y1="10.2484" x2="7.40156" y2="10.2484" gradientUnits="userSpaceOnUse">
<stop stop-color="#2aa2ff"/>
<stop offset="1" stop-color="#1b75bb"/>
</linearGradient>
<linearGradient id="paint11_linear_2434_254" x1="22.6016" y1="8.35" x2="24.0266" y2="8.35" gradientUnits="userSpaceOnUse">
<stop stop-color="#2aa2ff"/>
<stop offset="1" stop-color="#1b75bb"/>
</linearGradient>
<linearGradient id="paint12_linear_2434_254" x1="11.6797" y1="8.35" x2="21.6547" y2="8.35" gradientUnits="userSpaceOnUse">
<stop stop-color="#2aa2ff"/>
<stop offset="1" stop-color="#1b75bb"/>
</linearGradient>
<linearGradient id="paint13_linear_2434_254" x1="8.35156" y1="10.2484" x2="24.0265" y2="10.2484" gradientUnits="userSpaceOnUse">
<stop stop-color="#2aa2ff"/>
<stop offset="1" stop-color="#1b75bb"/>
</linearGradient>
<clipPath id="clip0_2434_254">
<rect width="30" height="30" fill="white"/>
</clipPath>
</defs>
</svg>
