<svg width="30" height="30" viewBox="0 0 30 30" fill="none" xmlns="http://www.w3.org/2000/svg">
<g clip-path="url(#clip0_2434_271)">
<path d="M27.825 5.5H16.9V2.65C16.9 2.14609 16.6998 1.66282 16.3435 1.3065C15.9872 0.950178 15.5039 0.75 15 0.75H2.65C2.14609 0.75 1.66282 0.950178 1.3065 1.3065C0.950178 1.66282 0.75 2.14609 0.75 2.65L0.75 27.35C0.75 27.8539 0.950178 28.3372 1.3065 28.6935C1.66282 29.0498 2.14609 29.25 2.65 29.25H24.5C24.626 29.25 24.7468 29.2 24.8359 29.1109C24.925 29.0218 24.975 28.901 24.975 28.775V28.3C24.975 27.7961 24.7748 27.3128 24.4185 26.9565C24.0622 26.6002 23.5789 26.4 23.075 26.4H20.225V23.55H27.825C28.2029 23.55 28.5654 23.3999 28.8326 23.1326C29.0999 22.8654 29.25 22.5029 29.25 22.125V6.925C29.25 6.54707 29.0999 6.18461 28.8326 5.91737C28.5654 5.65013 28.2029 5.5 27.825 5.5ZM9.775 28.3H2.65C2.39804 28.3 2.15641 28.1999 1.97825 28.0218C1.80009 27.8436 1.7 27.602 1.7 27.35V2.65C1.7 2.39804 1.80009 2.15641 1.97825 1.97825C2.15641 1.80009 2.39804 1.7 2.65 1.7H15C15.252 1.7 15.4936 1.80009 15.6718 1.97825C15.8499 2.15641 15.95 2.39804 15.95 2.65V5.5H15V4.55C15 4.29804 14.8999 4.05641 14.7218 3.87825C14.5436 3.70009 14.302 3.6 14.05 3.6H3.6C3.34804 3.6 3.10641 3.70009 2.92825 3.87825C2.75009 4.05641 2.65 4.29804 2.65 4.55V16.9C2.65 17.152 2.75009 17.3936 2.92825 17.5718C3.10641 17.7499 3.34804 17.85 3.6 17.85H5.5V22.125C5.501 22.4259 5.59742 22.7186 5.77539 22.9612C5.95335 23.2038 6.20369 23.3837 6.49038 23.4749C6.58268 24.021 6.86321 24.5175 7.28329 24.8784C7.70337 25.2392 8.23651 25.4417 8.79024 25.4506C9.34396 25.4595 9.88334 25.2743 10.3148 24.9272C10.7463 24.58 11.0427 24.0928 11.1525 23.55H14.525V26.4H11.675C11.1711 26.4 10.6878 26.6002 10.3315 26.9565C9.97518 27.3128 9.775 27.7961 9.775 28.3ZM5.5 16.9H3.6V13.575H5.5V16.9ZM5.5 12.625H3.6V9.3H5.5V12.625ZM5.5 6.925V8.35H3.6V4.55H14.05V5.5H6.925C6.54707 5.5 6.18461 5.65013 5.91737 5.91737C5.65013 6.18461 5.5 6.54707 5.5 6.925ZM7.4874 23.55H10.1626C10.0659 23.8277 9.88513 24.0683 9.64545 24.2386C9.40577 24.4089 9.11903 24.5004 8.825 24.5004C8.53097 24.5004 8.24423 24.4089 8.00455 24.2386C7.76487 24.0683 7.58413 23.8277 7.4874 23.55ZM24.025 28.3H10.725C10.725 28.048 10.8251 27.8064 11.0032 27.6282C11.1814 27.4501 11.423 27.35 11.675 27.35H23.075C23.327 27.35 23.5686 27.4501 23.7468 27.6282C23.9249 27.8064 24.025 28.048 24.025 28.3ZM19.275 26.4H15.475V23.55H19.275V26.4ZM28.3 22.125C28.3 22.251 28.25 22.3718 28.1609 22.4609C28.0718 22.55 27.951 22.6 27.825 22.6H6.925C6.79902 22.6 6.6782 22.55 6.58912 22.4609C6.50004 22.3718 6.45 22.251 6.45 22.125V6.925C6.45 6.79902 6.50004 6.6782 6.58912 6.58912C6.6782 6.50004 6.79902 6.45 6.925 6.45H27.825C27.951 6.45 28.0718 6.50004 28.1609 6.58912C28.25 6.6782 28.3 6.79902 28.3 6.925V22.125Z" fill="url(#paint0_linear_2434_271)"/>
<path d="M26.3984 7.40039H8.34844C8.09648 7.40039 7.85485 7.50048 7.67669 7.67864C7.49853 7.8568 7.39844 8.09843 7.39844 8.35039V20.7004C7.39844 20.9523 7.49853 21.194 7.67669 21.3721C7.85485 21.5503 8.09648 21.6504 8.34844 21.6504H26.3984C26.6504 21.6504 26.892 21.5503 27.0702 21.3721C27.2484 21.194 27.3484 20.9523 27.3484 20.7004V8.35039C27.3484 8.09843 27.2484 7.8568 27.0702 7.67864C26.892 7.50048 26.6504 7.40039 26.3984 7.40039ZM26.3984 20.7004H8.34844V8.35039H26.3984V20.7004Z" fill="url(#paint1_linear_2434_271)"/>
<path d="M9.77177 17.3758C9.89774 17.3758 10.0185 17.3257 10.1076 17.2366L17.2326 10.1116C17.3191 10.022 17.367 9.90206 17.3659 9.77751C17.3648 9.65297 17.3149 9.53383 17.2268 9.44577C17.1387 9.3577 17.0196 9.30774 16.8951 9.30666C16.7705 9.30558 16.6505 9.35345 16.5609 9.43998L9.43595 16.565C9.36954 16.6314 9.32432 16.716 9.306 16.8082C9.28768 16.9003 9.29708 16.9958 9.33303 17.0826C9.36897 17.1693 9.42984 17.2435 9.50793 17.2957C9.58603 17.3479 9.67784 17.3758 9.77177 17.3758Z" fill="url(#paint2_linear_2434_271)"/>
<path d="M9.77177 14.5258C9.89774 14.5258 10.0185 14.4757 10.1076 14.3866L14.3826 10.1116C14.4691 10.022 14.517 9.90206 14.5159 9.77751C14.5148 9.65297 14.4649 9.53383 14.3768 9.44577C14.2887 9.3577 14.1696 9.30774 14.0451 9.30666C13.9205 9.30558 13.8005 9.35345 13.7109 9.43998L9.43595 13.715C9.36954 13.7814 9.32432 13.866 9.306 13.9582C9.28768 14.0503 9.29708 14.1458 9.33303 14.2326C9.36897 14.3193 9.42984 14.3935 9.50793 14.4457C9.58603 14.4979 9.67784 14.5258 9.77177 14.5258Z" fill="url(#paint3_linear_2434_271)"/>
<path d="M9.77177 11.6758C9.89774 11.6758 10.0185 11.6257 10.1076 11.5366L11.5326 10.1116C11.6191 10.022 11.667 9.90206 11.6659 9.77751C11.6648 9.65297 11.6149 9.53383 11.5268 9.44577C11.4387 9.3577 11.3196 9.30774 11.1951 9.30666C11.0705 9.30558 10.9505 9.35345 10.8609 9.43998L9.43595 10.865C9.36954 10.9314 9.32432 11.016 9.306 11.1082C9.28768 11.2003 9.29708 11.2958 9.33303 11.3826C9.36897 11.4693 9.42984 11.5435 9.50793 11.5957C9.58603 11.6479 9.67784 11.6758 9.77177 11.6758Z" fill="url(#paint4_linear_2434_271)"/>
</g>
<defs>
<linearGradient id="paint0_linear_2434_271" x1="0.75" y1="15" x2="29.25" y2="15" gradientUnits="userSpaceOnUse">
<stop stop-color="#2aa2ff"/>
<stop offset="1" stop-color="#1b75bb"/>
</linearGradient>
<linearGradient id="paint1_linear_2434_271" x1="7.39844" y1="14.5254" x2="27.3484" y2="14.5254" gradientUnits="userSpaceOnUse">
<stop stop-color="#2aa2ff"/>
<stop offset="1" stop-color="#1b75bb"/>
</linearGradient>
<linearGradient id="paint2_linear_2434_271" x1="9.29688" y1="13.3412" x2="17.3659" y2="13.3412" gradientUnits="userSpaceOnUse">
<stop stop-color="#2aa2ff"/>
<stop offset="1" stop-color="#1b75bb"/>
</linearGradient>
<linearGradient id="paint3_linear_2434_271" x1="9.29688" y1="11.9162" x2="14.5159" y2="11.9162" gradientUnits="userSpaceOnUse">
<stop stop-color="#2aa2ff"/>
<stop offset="1" stop-color="#1b75bb"/>
</linearGradient>
<linearGradient id="paint4_linear_2434_271" x1="9.29688" y1="10.4912" x2="11.6659" y2="10.4912" gradientUnits="userSpaceOnUse">
<stop stop-color="#2aa2ff"/>
<stop offset="1" stop-color="#1b75bb"/>
</linearGradient>
<clipPath id="clip0_2434_271">
<rect width="30" height="30" fill="white"/>
</clipPath>
</defs>
</svg>
