<svg width="30" height="30" viewBox="0 0 30 30" fill="none" xmlns="http://www.w3.org/2000/svg">
<g clip-path="url(#clip0_2434_243)">
<path d="M26.875 0.75H3.125C2.49534 0.750754 1.89169 1.00122 1.44645 1.44645C1.00122 1.89169 0.750754 2.49534 0.75 3.125L0.75 24.025C0.750754 24.6547 1.00122 25.2583 1.44645 25.7035C1.89169 26.1488 2.49534 26.3992 3.125 26.4H5.5V26.875C5.50075 27.5047 5.75122 28.1083 6.19645 28.5535C6.64169 28.9988 7.24534 29.2492 7.875 29.25H22.125C22.7547 29.2492 23.3583 28.9988 23.8035 28.5535C24.2488 28.1083 24.4992 27.5047 24.5 26.875V26.4H26.875C27.5047 26.3992 28.1083 26.1488 28.5535 25.7035C28.9988 25.2583 29.2492 24.6547 29.25 24.025V3.125C29.2492 2.49534 28.9988 1.89169 28.5535 1.44645C28.1083 1.00122 27.5047 0.750754 26.875 0.75ZM3.125 1.7H26.875C27.2529 1.7 27.6154 1.85013 27.8826 2.11737C28.1499 2.38461 28.3 2.74707 28.3 3.125V4.55H1.7V3.125C1.7 2.74707 1.85013 2.38461 2.11737 2.11737C2.38461 1.85013 2.74707 1.7 3.125 1.7ZM11.675 10.25H8.825V9.3H11.675V10.25ZM8.35 11.2H22.125C22.5029 11.2 22.8654 11.3501 23.1326 11.6174C23.3999 11.8846 23.55 12.2471 23.55 12.625V16.425H18.5749C17.6095 15.51 16.3301 15 15 15C13.6699 15 12.3905 15.51 11.4252 16.425H6.45V12.625C6.45 12.2471 6.60013 11.8846 6.86737 11.6174C7.13461 11.3501 7.49707 11.2 7.875 11.2H8.35ZM15 15.95C15.8455 15.95 16.672 16.2007 17.3751 16.6705C18.0781 17.1402 18.626 17.8079 18.9496 18.589C19.2731 19.3702 19.3578 20.2297 19.1929 21.059C19.0279 21.8883 18.6208 22.65 18.0229 23.2479C17.425 23.8458 16.6633 24.2529 15.834 24.4179C15.0047 24.5828 14.1452 24.4981 13.364 24.1746C12.5829 23.851 11.9152 23.3031 11.4455 22.6001C10.9757 21.897 10.725 21.0705 10.725 20.225C10.7263 19.0916 11.1771 18.005 11.9785 17.2035C12.78 16.4021 13.8666 15.9513 15 15.95ZM23.55 26.875C23.55 27.2529 23.3999 27.6154 23.1326 27.8826C22.8654 28.1499 22.5029 28.3 22.125 28.3H7.875C7.49707 28.3 7.13461 28.1499 6.86737 27.8826C6.60013 27.6154 6.45 27.2529 6.45 26.875V17.375H10.6262C10.111 18.1633 9.8185 19.0761 9.77949 20.0169C9.74047 20.9578 9.95645 21.8917 10.4046 22.7199C10.8527 23.5481 11.5163 24.2398 12.3252 24.7219C13.1342 25.2039 14.0583 25.4584 15 25.4584C15.9417 25.4584 16.8658 25.2039 17.6748 24.7219C18.4837 24.2398 19.1473 23.5481 19.5954 22.7199C20.0435 21.8917 20.2595 20.9578 20.2205 20.0169C20.1815 19.0761 19.889 18.1633 19.3738 17.375H23.55V26.875ZM26.875 25.45H24.5V12.625C24.4992 11.9953 24.2488 11.3917 23.8035 10.9465C23.3583 10.5012 22.7547 10.2508 22.125 10.25H12.625V9.3C12.625 9.04804 12.5249 8.80641 12.3468 8.62825C12.1686 8.45009 11.927 8.35 11.675 8.35H8.825C8.57304 8.35 8.33141 8.45009 8.15325 8.62825C7.97509 8.80641 7.875 9.04804 7.875 9.3V10.25C7.24534 10.2508 6.64169 10.5012 6.19645 10.9465C5.75122 11.3917 5.50075 11.9953 5.5 12.625V25.45H3.125C2.74707 25.45 2.38461 25.2999 2.11737 25.0326C1.85013 24.7654 1.7 24.4029 1.7 24.025V5.5H28.3V24.025C28.3 24.4029 28.1499 24.7654 27.8826 25.0326C27.6154 25.2999 27.2529 25.45 26.875 25.45Z" fill="url(#paint0_linear_2434_243)"/>
<path d="M14.9969 23.5484C15.6545 23.5484 16.2974 23.3534 16.8441 22.9881C17.3909 22.6227 17.8171 22.1034 18.0688 21.4959C18.3204 20.8883 18.3863 20.2198 18.258 19.5748C18.1297 18.9298 17.813 18.3373 17.348 17.8723C16.883 17.4073 16.2905 17.0906 15.6456 16.9623C15.0006 16.834 14.332 16.8999 13.7245 17.1515C13.1169 17.4032 12.5976 17.8294 12.2322 18.3762C11.8669 18.923 11.6719 19.5658 11.6719 20.2234C11.673 21.1049 12.0237 21.95 12.647 22.5733C13.2703 23.1966 14.1154 23.5473 14.9969 23.5484ZM14.9969 17.8484C15.4666 17.8484 15.9258 17.9877 16.3164 18.2487C16.7069 18.5097 17.0113 18.8806 17.1911 19.3146C17.3708 19.7485 17.4179 20.2261 17.3262 20.6868C17.2346 21.1475 17.0084 21.5707 16.6763 21.9028C16.3441 22.235 15.9209 22.4612 15.4602 22.5528C14.9995 22.6444 14.522 22.5974 14.088 22.4177C13.654 22.2379 13.2831 21.9335 13.0221 21.5429C12.7612 21.1524 12.6219 20.6932 12.6219 20.2234C12.6226 19.5938 12.8731 18.9901 13.3183 18.5449C13.7636 18.0997 14.3672 17.8492 14.9969 17.8484Z" fill="url(#paint1_linear_2434_243)"/>
<path d="M19.2687 14.9984H21.1687C21.5467 14.9984 21.9091 14.8483 22.1764 14.5811C22.4436 14.3138 22.5937 13.9514 22.5937 13.5734C22.5937 13.1955 22.4436 12.833 22.1764 12.5658C21.9091 12.2986 21.5467 12.1484 21.1687 12.1484H19.2687C18.8908 12.1484 18.5284 12.2986 18.2611 12.5658C17.9939 12.833 17.8438 13.1955 17.8438 13.5734C17.8438 13.9514 17.9939 14.3138 18.2611 14.5811C18.5284 14.8483 18.8908 14.9984 19.2687 14.9984ZM19.2687 13.0984H21.1687C21.2947 13.0984 21.4155 13.1485 21.5046 13.2376C21.5937 13.3266 21.6437 13.4475 21.6437 13.5734C21.6437 13.6994 21.5937 13.8202 21.5046 13.9093C21.4155 13.9984 21.2947 14.0484 21.1687 14.0484H19.2687C19.1428 14.0484 19.022 13.9984 18.9329 13.9093C18.8438 13.8202 18.7937 13.6994 18.7937 13.5734C18.7937 13.4475 18.8438 13.3266 18.9329 13.2376C19.022 13.1485 19.1428 13.0984 19.2687 13.0984Z" fill="url(#paint2_linear_2434_243)"/>
<path d="M3.12344 3.59844H3.59844C3.72442 3.59844 3.84523 3.54839 3.93431 3.45931C4.02339 3.37023 4.07344 3.24942 4.07344 3.12344C4.07344 2.99746 4.02339 2.87664 3.93431 2.78756C3.84523 2.69848 3.72442 2.64844 3.59844 2.64844H3.12344C2.99746 2.64844 2.87664 2.69848 2.78756 2.78756C2.69848 2.87664 2.64844 2.99746 2.64844 3.12344C2.64844 3.24942 2.69848 3.37023 2.78756 3.45931C2.87664 3.54839 2.99746 3.59844 3.12344 3.59844Z" fill="url(#paint3_linear_2434_243)"/>
<path d="M5.50625 3.59844H5.98125C6.10723 3.59844 6.22805 3.54839 6.31713 3.45931C6.40621 3.37023 6.45625 3.24942 6.45625 3.12344C6.45625 2.99746 6.40621 2.87664 6.31713 2.78756C6.22805 2.69848 6.10723 2.64844 5.98125 2.64844H5.50625C5.38027 2.64844 5.25945 2.69848 5.17037 2.78756C5.08129 2.87664 5.03125 2.99746 5.03125 3.12344C5.03125 3.24942 5.08129 3.37023 5.17037 3.45931C5.25945 3.54839 5.38027 3.59844 5.50625 3.59844Z" fill="url(#paint4_linear_2434_243)"/>
<path d="M7.87344 3.59844H8.34844C8.47442 3.59844 8.59523 3.54839 8.68431 3.45931C8.77339 3.37023 8.82344 3.24942 8.82344 3.12344C8.82344 2.99746 8.77339 2.87664 8.68431 2.78756C8.59523 2.69848 8.47442 2.64844 8.34844 2.64844H7.87344C7.74746 2.64844 7.62664 2.69848 7.53756 2.78756C7.44848 2.87664 7.39844 2.99746 7.39844 3.12344C7.39844 3.24942 7.44848 3.37023 7.53756 3.45931C7.62664 3.54839 7.74746 3.59844 7.87344 3.59844Z" fill="url(#paint5_linear_2434_243)"/>
<path d="M23.0766 3.59844H26.8766C27.0025 3.59844 27.1234 3.54839 27.2124 3.45931C27.3015 3.37023 27.3516 3.24942 27.3516 3.12344C27.3516 2.99746 27.3015 2.87664 27.2124 2.78756C27.1234 2.69848 27.0025 2.64844 26.8766 2.64844H23.0766C22.9506 2.64844 22.8298 2.69848 22.7407 2.78756C22.6516 2.87664 22.6016 2.99746 22.6016 3.12344C22.6016 3.24942 22.6516 3.37023 22.7407 3.45931C22.8298 3.54839 22.9506 3.59844 23.0766 3.59844Z" fill="url(#paint6_linear_2434_243)"/>
<path d="M14.5218 21.1754C14.6477 21.1754 14.7685 21.1253 14.8576 21.0362L15.8076 20.0862C15.8941 19.9967 15.942 19.8767 15.9409 19.7521C15.9398 19.6276 15.8899 19.5084 15.8018 19.4204C15.7137 19.3323 15.5946 19.2824 15.4701 19.2813C15.3455 19.2802 15.2255 19.3281 15.1359 19.4146L14.1859 20.3646C14.1195 20.431 14.0743 20.5156 14.056 20.6078C14.0377 20.6999 14.0471 20.7954 14.083 20.8822C14.119 20.969 14.1798 21.0431 14.2579 21.0953C14.336 21.1475 14.4278 21.1754 14.5218 21.1754Z" fill="url(#paint7_linear_2434_243)"/>
</g>
<defs>
<linearGradient id="paint0_linear_2434_243" x1="0.75" y1="15" x2="29.25" y2="15" gradientUnits="userSpaceOnUse">
<stop stop-color="#2aa2ff"/>
<stop offset="1" stop-color="#1b75bb"/>
</linearGradient>
<linearGradient id="paint1_linear_2434_243" x1="11.6719" y1="20.2234" x2="18.3219" y2="20.2234" gradientUnits="userSpaceOnUse">
<stop stop-color="#2aa2ff"/>
<stop offset="1" stop-color="#1b75bb"/>
</linearGradient>
<linearGradient id="paint2_linear_2434_243" x1="17.8438" y1="13.5734" x2="22.5938" y2="13.5734" gradientUnits="userSpaceOnUse">
<stop stop-color="#2aa2ff"/>
<stop offset="1" stop-color="#1b75bb"/>
</linearGradient>
<linearGradient id="paint3_linear_2434_243" x1="2.64844" y1="3.12344" x2="4.07344" y2="3.12344" gradientUnits="userSpaceOnUse">
<stop stop-color="#2aa2ff"/>
<stop offset="1" stop-color="#1b75bb"/>
</linearGradient>
<linearGradient id="paint4_linear_2434_243" x1="5.03125" y1="3.12344" x2="6.45625" y2="3.12344" gradientUnits="userSpaceOnUse">
<stop stop-color="#2aa2ff"/>
<stop offset="1" stop-color="#1b75bb"/>
</linearGradient>
<linearGradient id="paint5_linear_2434_243" x1="7.39844" y1="3.12344" x2="8.82344" y2="3.12344" gradientUnits="userSpaceOnUse">
<stop stop-color="#2aa2ff"/>
<stop offset="1" stop-color="#1b75bb"/>
</linearGradient>
<linearGradient id="paint6_linear_2434_243" x1="22.6016" y1="3.12344" x2="27.3516" y2="3.12344" gradientUnits="userSpaceOnUse">
<stop stop-color="#2aa2ff"/>
<stop offset="1" stop-color="#1b75bb"/>
</linearGradient>
<linearGradient id="paint7_linear_2434_243" x1="14.0469" y1="20.2283" x2="15.9409" y2="20.2283" gradientUnits="userSpaceOnUse">
<stop stop-color="#2aa2ff"/>
<stop offset="1" stop-color="#1b75bb"/>
</linearGradient>
<clipPath id="clip0_2434_243">
<rect width="30" height="30" fill="white"/>
</clipPath>
</defs>
</svg>
