<svg width="40" height="40" viewBox="0 0 40 40" fill="none" xmlns="http://www.w3.org/2000/svg">
<circle cx="20" cy="20" r="19.5" fill="white" stroke="#E3E3E3"/>
<path d="M14.75 14.25C12.6406 14.25 11 15.9297 11 18C11 20.1094 12.6406 21.75 14.75 21.75C15.1797 21.75 15.5703 21.6719 16 21.5547V21.75C16 23.1562 14.8672 24.25 13.5 24.25C12.7969 24.25 12.25 24.8359 12.25 25.5C12.25 26.2031 12.7969 26.75 13.5 26.75C16.2344 26.75 18.5 24.5234 18.5 21.75V18C18.5 15.9297 16.8203 14.25 14.75 14.25ZM28.5 18C28.5 15.9297 26.8203 14.25 24.75 14.25C22.6406 14.25 21 15.9297 21 18C21 20.1094 22.6406 21.75 24.75 21.75C25.1797 21.75 25.5703 21.6719 26 21.5547V21.75C26 23.1562 24.8672 24.25 23.5 24.25C22.7969 24.25 22.25 24.8359 22.25 25.5C22.25 26.2031 22.7969 26.75 23.5 26.75C26.2344 26.75 28.5 24.5234 28.5 21.75V18Z" fill="url(#paint0_linear_281_20)"/>
<defs>
<linearGradient id="paint0_linear_281_20" x1="11" y1="20" x2="29" y2="20" gradientUnits="userSpaceOnUse">
<stop stop-color="#2aa2ff"/>
<stop offset="1" stop-color="#1b75bb"/>
</linearGradient>
</defs>
</svg>
