<svg width="29" height="26" viewBox="0 0 29 26" fill="none" xmlns="http://www.w3.org/2000/svg">
<path d="M19.3306 25.6253H0.446435C0.223217 25.6253 0 25.4467 0 25.1789C0 24.911 0.178574 24.7324 0.446435 24.7324H19.3306C19.5538 24.7324 19.7771 24.911 19.7771 25.1789C19.7771 25.4467 19.5538 25.6253 19.3306 25.6253Z" fill="white"/>
<path d="M19.3339 25.6236H3.173C2.94978 25.6236 2.72656 25.4451 2.72656 25.1772V13.7931C2.72656 13.5699 2.90514 13.3467 3.173 13.3467C3.44086 13.3467 3.61943 13.5253 3.61943 13.7931V24.7308H19.3339C19.5571 24.7308 19.7804 24.9093 19.7804 25.1772C19.7804 25.4451 19.5571 25.6236 19.3339 25.6236Z" fill="white"/>
<path d="M2.00896 14.6877C1.47323 14.6877 0.982156 14.5091 0.580365 14.1073C0.223217 13.7502 0 13.2145 0 12.6787C0 12.1877 0.223217 11.6966 0.535722 11.2948L10.7591 1.07144C12.1877 -0.357148 14.4645 -0.357148 15.8931 1.07144L20.2681 5.4465C20.4467 5.62508 20.4467 5.89294 20.2681 6.07151C20.0896 6.25008 19.8217 6.25008 19.6431 6.07151L15.2681 1.69645C14.1966 0.625009 12.4555 0.625009 11.3841 1.69645L1.20537 11.8752C1.0268 12.0984 0.892869 12.4109 0.892869 12.6787C0.892869 12.902 0.937513 13.2145 1.20537 13.4823C1.65181 13.9288 2.41075 13.9288 2.85718 13.4823L13.0359 3.30362C13.2145 3.12504 13.4823 3.12504 13.6609 3.30362L17.3663 7.00902C17.5449 7.1876 17.5449 7.45546 17.3663 7.63403C17.1877 7.81261 16.9199 7.81261 16.7413 7.63403L13.3484 4.24113L3.48219 14.1073C3.0804 14.5091 2.54468 14.6877 2.00896 14.6877Z" fill="white"/>
<path d="M14.6842 25.6267H8.34487C8.12165 25.6267 7.89844 25.4481 7.89844 25.1802V17.0551C7.89844 16.3408 8.4788 15.7158 9.23774 15.7158H13.836C14.5503 15.7158 15.1307 16.3408 15.1307 17.0551V25.1802C15.1307 25.4035 14.9075 25.6267 14.6842 25.6267ZM8.79131 24.7338H14.2378V17.0551C14.2378 16.7873 14.0146 16.6087 13.836 16.6087H9.23774C8.96988 16.6087 8.79131 16.8319 8.79131 17.0551V24.7338Z" fill="white"/>
<path d="M22.0961 25.581C21.5157 25.581 20.98 25.2685 20.6675 24.7774C19.105 22.1881 15.5781 15.938 15.5781 13.2594C15.5781 9.68796 18.48 6.78613 22.0514 6.78613C25.6229 6.78613 28.5694 9.68796 28.5694 13.2594C28.5694 15.1345 26.8729 18.9738 23.5693 24.7774C23.2122 25.2685 22.6764 25.581 22.0961 25.581ZM22.0514 7.679C18.971 7.679 16.471 10.179 16.471 13.2594C16.471 15.7595 20.2657 22.3667 21.4264 24.331C21.5603 24.5542 21.8282 24.7328 22.1407 24.7328C22.4532 24.7328 22.6764 24.5989 22.855 24.331C26.8283 17.322 27.6765 14.4202 27.6765 13.2594C27.6765 10.179 25.1765 7.679 22.0514 7.679Z" fill="white"/>
<path d="M22.0972 17.4092C19.8203 17.4092 17.9453 15.5341 17.9453 13.2573C17.9453 10.9805 19.8203 9.10547 22.0972 9.10547C24.374 9.10547 26.249 10.9805 26.249 13.2573C26.249 15.5341 24.374 17.4092 22.0972 17.4092ZM22.0972 9.99834C20.3114 9.99834 18.8382 11.4716 18.8382 13.2573C18.8382 15.043 20.3114 16.5163 22.0972 16.5163C23.8829 16.5163 25.3561 15.043 25.3561 13.2573C25.3561 11.4716 23.8829 9.99834 22.0972 9.99834Z" fill="white"/>
<path d="M9.68862 21.4732C9.4654 21.4732 9.24219 21.2947 9.24219 21.0268V20.4464C9.24219 20.2232 9.42076 20 9.68862 20C9.95648 20 10.1351 20.1786 10.1351 20.4464V21.0268C10.1351 21.25 9.91184 21.4732 9.68862 21.4732Z" fill="white"/>
</svg>
