<svg width="24" height="30" viewBox="0 0 24 30" fill="none" xmlns="http://www.w3.org/2000/svg">
<path d="M17.7121 25.1367C17.3966 25.1367 17.1406 25.3992 17.1406 25.7227C17.1406 26.0461 17.3966 26.3086 17.7121 26.3086C18.0275 26.3086 18.2835 26.0461 18.2835 25.7227C18.2835 25.3992 18.0275 25.1367 17.7121 25.1367Z" fill="white"/>
<path d="M6.29018 25.1367C5.97475 25.1367 5.71875 25.3992 5.71875 25.7227C5.71875 26.0461 5.97475 26.3086 6.29018 26.3086C6.60561 26.3086 6.86161 26.0461 6.86161 25.7227C6.86161 25.3992 6.60561 25.1367 6.29018 25.1367Z" fill="white"/>
<path d="M22.9511 22.1021C22.3079 21.0812 21.4239 20.27 20.3885 19.7461C20.3011 19.6629 20.1889 19.6072 20.064 19.593C19.315 19.267 18.5255 19.1016 17.7143 19.1016H16V17.5557C16.9921 16.6829 17.7053 15.5268 18.0511 14.2383H18.2857C19.5461 14.2383 20.5714 13.1869 20.5714 11.8945C20.5714 11.2821 20.3409 10.7241 19.9645 10.3061C20.0004 10.2748 20.0355 10.2422 20.0692 10.2077C20.3931 9.87557 20.5714 9.43418 20.5714 8.96484C20.5714 8.19357 20.0842 7.53715 19.409 7.30102C19.2071 4.60664 17.3629 2.30414 14.8238 1.5825C14.6733 0.776719 14.0248 0 13.1429 0H10.8571C9.9752 0 9.32669 0.776719 9.17623 1.5825C6.63731 2.30408 4.79331 4.60617 4.59109 7.3002C4.34526 7.38568 4.11983 7.52824 3.9308 7.72201C3.60691 8.05412 3.42857 8.49551 3.42857 8.96484C3.42857 9.50174 3.6648 9.98291 4.036 10.3056C3.65931 10.7236 3.42857 11.2819 3.42857 11.8945C3.42857 13.1869 4.45394 14.2383 5.71429 14.2383H5.94731C6.236 15.3139 6.78337 16.3014 7.54697 17.1171C7.69046 17.2705 7.84257 17.4166 8 17.5552V19.1016H6.28571C5.4744 19.1016 4.68491 19.267 3.936 19.5929C3.8112 19.6072 3.69886 19.6629 3.6116 19.746C2.576 20.27 1.69211 21.0812 1.04886 22.1021C0.362686 23.1912 0 24.4431 0 25.7227V29.4141C0 29.7376 0.255829 30 0.571429 30H23.4286C23.7442 30 24 29.7376 24 29.4141V25.7227C24 24.4431 23.6373 23.1912 22.9511 22.1021ZM3.42857 28.8281H1.14286V25.7227C1.14286 23.9404 2.03326 22.2322 3.42857 21.2181V28.8281ZM18.2857 13.0664H18.2597C18.2767 12.8715 18.2857 12.6758 18.2857 12.4805V10.7227C18.9159 10.7227 19.4286 11.2484 19.4286 11.8945C19.4286 12.5407 18.9159 13.0664 18.2857 13.0664ZM9.14286 2.82064V5.44922C9.14286 5.77283 9.39869 6.03516 9.71429 6.03516C10.0299 6.03516 10.2857 5.77283 10.2857 5.44922V2.05447C10.2857 2.05295 10.2857 2.05143 10.2857 2.0499V1.93359C10.2857 1.57055 10.5848 1.17188 10.8571 1.17188H13.1429C13.4152 1.17188 13.7143 1.57055 13.7143 1.93359V2.0499C13.7143 2.05143 13.7143 2.05295 13.7143 2.05447V5.44922C13.7143 5.77283 13.9701 6.03516 14.2857 6.03516C14.6013 6.03516 14.8571 5.77283 14.8571 5.44922V2.82064C16.7023 3.4902 18.0343 5.2023 18.2538 7.20703H5.74623C5.96571 5.2023 7.29771 3.4902 9.14286 2.82064ZM5.71429 13.0664C5.08411 13.0664 4.57143 12.5407 4.57143 11.8945C4.57143 11.2484 5.08411 10.7227 5.71429 10.7227V12.4805C5.71429 12.6758 5.72331 12.8715 5.74034 13.0664H5.71429ZM5.71429 9.55078H5.14286C4.82777 9.55078 4.57143 9.28793 4.57143 8.96484C4.57143 8.80852 4.63091 8.66139 4.73891 8.5507C4.84697 8.4399 4.9904 8.37891 5.14286 8.37891H18.8571C19.1722 8.37891 19.4286 8.64176 19.4286 8.96484C19.4286 9.12117 19.3691 9.2683 19.2611 9.37898C19.1531 9.48979 19.0096 9.55078 18.8571 9.55078H18.2857H17.7143H6.28571H5.71429ZM6.96097 13.5459C6.95983 13.5395 6.95874 13.5332 6.95737 13.5269C6.89103 13.183 6.85714 12.831 6.85714 12.4805V10.7227H17.1429V12.4805C17.1429 12.8307 17.109 13.1825 17.0426 13.5267C17.0413 13.533 17.0402 13.5394 17.039 13.5458C16.7837 14.8528 16.0769 16.0228 15.0478 16.8411C14.1537 17.5533 13.0998 17.9297 12 17.9297C10.9002 17.9297 9.84629 17.5533 8.95137 16.8405C8.74651 16.6779 8.55154 16.4981 8.37166 16.3058C7.6508 15.5357 7.16326 14.5818 6.96097 13.5459ZM11.4286 28.8281H6.85714V27.4805C6.85714 27.1569 6.60131 26.8945 6.28571 26.8945C5.97011 26.8945 5.71429 27.1569 5.71429 27.4805V28.8281H4.57143V20.5942C4.94229 20.4508 5.32434 20.3552 5.71429 20.3081V23.9648C5.71429 24.2885 5.97011 24.5508 6.28571 24.5508C6.60131 24.5508 6.85714 24.2885 6.85714 23.9648V20.2734H8.32657L11.4286 23.6133V28.8281ZM9.14286 19.4531V18.3618C10.0246 18.8478 10.9958 19.1016 12 19.1016C13.0042 19.1016 13.9755 18.8477 14.8571 18.3618V19.4531L12 22.5293L9.14286 19.4531ZM19.4286 28.8281H18.2857V27.4805C18.2857 27.1569 18.0299 26.8945 17.7143 26.8945C17.3987 26.8945 17.1429 27.1569 17.1429 27.4805V28.8281H12.5714V23.6133L15.6734 20.2734H17.1429V23.9648C17.1429 24.2885 17.3987 24.5508 17.7143 24.5508C18.0299 24.5508 18.2857 24.2885 18.2857 23.9648V20.3081C18.6757 20.3552 19.0577 20.4509 19.4286 20.5942V28.8281ZM22.8571 28.8281H20.5714V21.218C21.9667 22.2321 22.8571 23.9404 22.8571 25.7227V28.8281Z" fill="white"/>
</svg>
