<svg width="40" height="40" viewBox="0 0 40 40" fill="none" xmlns="http://www.w3.org/2000/svg">
<path d="M23.5615 1.00195C15.6265 1.00195 9.07168 7.01949 8.21802 14.7306L7.10287 13.6154C6.96364 13.4762 6.77497 13.398 6.57815 13.398H1.74218C1.44204 13.398 1.17144 13.5789 1.05654 13.8561C0.941653 14.1333 1.00526 14.4526 1.21745 14.6648L2.99322 16.4406L1.21738 18.2163C1.00518 18.4286 0.941653 18.7478 1.05647 19.025C1.17136 19.3023 1.44189 19.4831 1.74211 19.4831H6.57815C6.77497 19.4831 6.96364 19.4049 7.10287 19.2657L8.21794 18.1506C8.46183 20.3484 9.17351 22.4717 10.3128 24.371C10.5237 24.7224 10.9793 24.8365 11.3309 24.6257C11.6823 24.4149 11.7963 23.9591 11.5856 23.6076C10.4181 21.6611 9.74901 19.4538 9.6287 17.1826H12.3041C12.4337 19.1769 13.0837 21.0882 14.2059 22.7495C14.4354 23.089 14.8967 23.1783 15.2362 22.949C15.5759 22.7196 15.6652 22.2582 15.4357 21.9187C14.4798 20.5037 13.9177 18.8795 13.7906 17.1827H16.4728C16.7634 19.9787 18.677 22.2992 21.2522 23.1837L8.25268 26.5309H5.23493C4.25071 26.5309 3.43126 27.2471 3.26879 28.1856C1.96803 28.5058 1.00006 29.6817 1.00006 31.0799C1.00006 32.4811 1.97211 33.6589 3.27718 33.9761C3.42369 34.7166 3.98085 35.3107 4.7007 35.511L5.88769 38.5274C5.99939 38.8111 6.27325 38.9977 6.57829 38.9977H9.69008C9.93567 38.9977 10.1652 38.8763 10.3034 38.6734C10.4416 38.4705 10.4706 38.2124 10.3807 37.9839L9.57118 35.9272L21.295 38.9741C21.3566 38.99 21.4194 38.9979 21.4817 38.9979C21.6442 38.9979 21.8043 38.9444 21.9356 38.8428C22.1174 38.7023 22.2237 38.4855 22.2237 38.2558V23.8909C22.2237 23.71 22.157 23.5379 22.0403 23.404C22.5306 23.511 23.0396 23.568 23.5615 23.568C27.4915 23.568 30.6889 20.3708 30.6889 16.4407C30.6889 12.5107 27.4915 9.31337 23.5615 9.31337C19.8821 9.31337 16.8451 12.1161 16.4727 15.6987H13.7906C14.1711 10.6409 18.4081 6.64193 23.5615 6.64193C28.9645 6.64193 33.3603 11.0376 33.3603 16.4408C33.3603 19.0582 32.3411 21.5188 30.4903 23.3696C30.2006 23.6593 30.2006 24.1293 30.4903 24.4191C30.6353 24.5641 30.8251 24.6365 31.0151 24.6365C31.205 24.6365 31.3948 24.5641 31.5398 24.4191C33.6708 22.2881 34.8445 19.4547 34.8445 16.4409C34.8445 10.2194 29.783 5.15785 23.5615 5.15785C17.5894 5.15785 12.687 9.822 12.3035 15.6987H9.62669C10.0137 8.34779 16.1157 2.48633 23.5614 2.48633C31.2558 2.48626 37.5158 8.74627 37.5158 16.4408C37.5158 19.5667 36.5058 22.5212 34.595 24.985C34.3438 25.3088 34.4028 25.775 34.7266 26.0262C34.8619 26.1311 35.0219 26.182 35.1809 26.182C35.4024 26.182 35.6215 26.0832 35.7678 25.8947C37.8823 23.1682 39 19.8992 39 16.4409C39.0001 7.92763 32.0745 1.00195 23.5615 1.00195ZM6.27073 17.999H3.53368L4.56733 16.9654C4.85708 16.6756 4.85708 16.2057 4.56733 15.9158L3.53368 14.8822H6.27073L7.82911 16.4406L6.27073 17.999ZM3.23903 32.3781C2.78882 32.1198 2.48422 31.6352 2.48422 31.08C2.48422 30.5247 2.78874 30.0402 3.23903 29.7818V32.3781ZM5.23493 34.1002C4.95275 34.1002 4.72319 33.8706 4.72319 33.5885V28.5269H4.72311C4.72311 28.2447 4.95275 28.0152 5.23485 28.0152H7.60452V34.1002H5.23493V34.1002ZM7.08358 37.5138L6.32446 35.5843H7.84121L8.60039 37.5137H7.08358V37.5138ZM20.7395 37.2963L9.08883 34.2684V27.8482L17.4754 25.6888V31.4534C17.4754 31.8633 17.8076 32.1956 18.2175 32.1956C18.6272 32.1956 18.9596 31.8634 18.9596 31.4534V25.3066L20.7397 24.8482V37.2963H20.7395ZM23.5615 15.6985H22.2742C22.5317 15.2537 23.0117 14.9531 23.5615 14.9531C24.3817 14.9531 25.049 15.6204 25.049 16.4406C25.049 17.2608 24.3817 17.9281 23.5615 17.9281C23.0117 17.9281 22.5317 17.6275 22.2742 17.1826H23.5615C23.9712 17.1826 24.3036 16.8504 24.3036 16.4405C24.3036 16.0307 23.9713 15.6985 23.5615 15.6985ZM23.5615 19.4123C25.2001 19.4123 26.5331 18.0792 26.5331 16.4406C26.5331 14.802 25.2001 13.469 23.5615 13.469C22.1791 13.469 21.014 14.4179 20.6836 15.6986H17.9686C18.3333 12.9365 20.7015 10.7975 23.5615 10.7975C26.6732 10.7975 29.2046 13.3291 29.2046 16.4407C29.2046 19.5523 26.6732 22.0839 23.5615 22.0839C20.7015 22.0839 18.3333 19.9447 17.9686 17.1828H20.6836C21.014 18.4634 22.179 19.4123 23.5615 19.4123Z" fill="url(#paint0_linear_2312_17296)"/>
<path d="M34.1022 26.7049C33.824 26.4056 33.3549 26.3888 33.0547 26.6658C33.0512 26.6689 33.0445 26.6752 33.0411 26.6784C32.7453 26.962 32.7352 27.4318 33.0188 27.7277C33.1645 27.8798 33.3593 27.9563 33.5546 27.9563C33.737 27.9563 33.9196 27.8896 34.0627 27.7551C34.0643 27.7536 34.0664 27.7517 34.0674 27.7507C34.3655 27.4711 34.3805 27.0041 34.1022 26.7049Z" fill="url(#paint1_linear_2312_17296)"/>
<path d="M29.4543 25.1686C29.1644 24.8787 28.6946 24.8787 28.4048 25.1685C28.1151 25.4582 28.1151 25.9282 28.4048 26.218C31.082 28.8952 31.082 33.2514 28.4048 35.9287C28.1151 36.2184 28.1151 36.6884 28.4048 36.9781C28.5498 37.1231 28.7396 37.1955 28.9295 37.1955C29.1195 37.1955 29.3093 37.123 29.4543 36.9781C32.7102 33.7222 32.7102 28.4244 29.4543 25.1686Z" fill="url(#paint2_linear_2312_17296)"/>
<path d="M27.5637 27.0611C27.274 26.7713 26.8042 26.7713 26.5142 27.0611C26.2244 27.3508 26.2244 27.8208 26.5142 28.1105C28.1487 29.7451 28.1487 32.4048 26.5142 34.0392C26.2244 34.329 26.2244 34.7989 26.5142 35.0887C26.6591 35.2336 26.849 35.3061 27.0389 35.3061C27.2288 35.3061 27.4187 35.2336 27.5636 35.0887C29.7769 32.8755 29.7769 29.2743 27.5637 27.0611Z" fill="url(#paint3_linear_2312_17296)"/>
<path d="M25.5637 29.0532C25.2739 28.7635 24.8042 28.7635 24.5142 29.0532C24.2244 29.3429 24.2244 29.8129 24.5142 30.1027C25.0494 30.6379 25.0494 31.5087 24.5142 32.0439C24.2244 32.3337 24.2244 32.8036 24.5142 33.0935C24.6591 33.2384 24.849 33.3108 25.0389 33.3108C25.2288 33.3108 25.4187 33.2384 25.5636 33.0935C26.6776 31.9795 26.6776 30.1671 25.5637 29.0532Z" fill="url(#paint4_linear_2312_17296)"/>
<path d="M18.7355 33.7253C18.5975 33.5872 18.4061 33.5078 18.2109 33.5078C18.0157 33.5078 17.8243 33.5872 17.6862 33.7253C17.5482 33.8633 17.4688 34.0547 17.4688 34.2499C17.4688 34.4451 17.5482 34.6365 17.6862 34.7746C17.8243 34.9126 18.0157 34.992 18.2109 34.992C18.4061 34.992 18.5975 34.9126 18.7355 34.7746C18.8743 34.6365 18.953 34.4451 18.953 34.2499C18.953 34.0547 18.8742 33.8633 18.7355 33.7253Z" fill="url(#paint5_linear_2312_17296)"/>
<defs>
<linearGradient id="paint0_linear_2312_17296" x1="1" y1="19.9999" x2="39" y2="19.9999" gradientUnits="userSpaceOnUse">
<stop stop-color="#2aa2ff"/>
<stop offset="1" stop-color="#1b75bb"/>
</linearGradient>
<linearGradient id="paint1_linear_2312_17296" x1="32.8125" y1="27.2125" x2="34.3014" y2="27.2125" gradientUnits="userSpaceOnUse">
<stop stop-color="#2aa2ff"/>
<stop offset="1" stop-color="#1b75bb"/>
</linearGradient>
<linearGradient id="paint2_linear_2312_17296" x1="28.1875" y1="31.0733" x2="31.8962" y2="31.0733" gradientUnits="userSpaceOnUse">
<stop stop-color="#2aa2ff"/>
<stop offset="1" stop-color="#1b75bb"/>
</linearGradient>
<linearGradient id="paint3_linear_2312_17296" x1="26.2969" y1="31.0749" x2="29.2236" y2="31.0749" gradientUnits="userSpaceOnUse">
<stop stop-color="#2aa2ff"/>
<stop offset="1" stop-color="#1b75bb"/>
</linearGradient>
<linearGradient id="paint4_linear_2312_17296" x1="24.2969" y1="31.0734" x2="26.3991" y2="31.0734" gradientUnits="userSpaceOnUse">
<stop stop-color="#2aa2ff"/>
<stop offset="1" stop-color="#1b75bb"/>
</linearGradient>
<linearGradient id="paint5_linear_2312_17296" x1="17.4688" y1="34.2499" x2="18.953" y2="34.2499" gradientUnits="userSpaceOnUse">
<stop stop-color="#2aa2ff"/>
<stop offset="1" stop-color="#1b75bb"/>
</linearGradient>
</defs>
</svg>
