<svg width="40" height="40" viewBox="0 0 40 40" fill="none" xmlns="http://www.w3.org/2000/svg">
<path d="M25.934 12.9352C25.8466 12.6665 25.6142 12.4708 25.3347 12.4302L22.106 11.9619L20.6613 9.0366C20.5362 8.78336 20.2782 8.62305 19.9958 8.62305H19.9957C19.7131 8.62312 19.4552 8.78358 19.3302 9.03697L17.8872 11.963L14.6587 12.433C14.3791 12.4737 14.1469 12.6696 14.0597 12.9383C13.9725 13.207 14.0454 13.5019 14.2477 13.699L16.5846 15.9757L16.0339 19.1914C15.9862 19.4699 16.1008 19.7512 16.3294 19.9173C16.4587 20.0112 16.6117 20.0589 16.7655 20.0589C16.8837 20.0589 17.0024 20.0307 17.111 19.9735L19.9984 18.4546L22.8865 19.972C23.1366 20.1034 23.4396 20.0814 23.6681 19.9153C23.8966 19.7492 24.011 19.4677 23.9632 19.1893L23.4109 15.9739L25.7466 13.6961C25.9487 13.4988 26.0213 13.2039 25.934 12.9352ZM22.0951 15.1837C21.9202 15.3543 21.8404 15.5999 21.8817 15.8407L22.2456 17.9586L20.3433 16.9591C20.1271 16.8455 19.8687 16.8456 19.6525 16.9593L17.7507 17.9597L18.1134 15.8417C18.1547 15.6009 18.0747 15.3552 17.8998 15.1848L16.3607 13.6852L18.4871 13.3757C18.7288 13.3405 18.9378 13.1886 19.0458 12.9695L19.9963 11.0424L20.9478 12.9691C21.0561 13.1881 21.2651 13.3399 21.5068 13.3749L23.6334 13.6834L22.0951 15.1837Z" fill="url(#paint0_linear_2312_17276)"/>
<path d="M36.6775 33.6095L30.5429 22.939C32.3955 20.6264 33.5054 17.6946 33.5054 14.5079C33.5054 7.05962 27.4458 1 19.9975 1C12.5492 1 6.48962 7.05962 6.48962 14.5079C6.48962 17.6946 7.59949 20.6264 9.45215 22.939L3.31749 33.6095C3.17662 33.8545 3.18716 34.1584 3.34473 34.3931C3.5023 34.6278 3.7798 34.7527 4.05968 34.715L8.84779 34.0721L10.685 38.5401C10.7926 38.8018 11.0396 38.9795 11.322 38.9984C11.3386 38.9995 11.3551 39 11.3716 39C11.6355 39 11.8811 38.8595 12.0142 38.6289L18.2073 27.9022C18.2082 27.9006 18.2089 27.8989 18.2099 27.8972C18.795 27.9749 19.3916 28.0157 19.9977 28.0157C20.6037 28.0157 21.2003 27.9749 21.7855 27.8972C21.7864 27.8988 21.7871 27.9005 21.788 27.9022L27.9811 38.6289C28.1143 38.8595 28.3599 39 28.6237 39C28.6402 39 28.6567 38.9995 28.6734 38.9984C28.9557 38.9795 29.2027 38.8018 29.3103 38.5401L31.1476 34.0721L35.9357 34.715C36.2162 34.7527 36.4931 34.6278 36.6507 34.3931C36.8078 34.1584 36.8184 33.8545 36.6775 33.6095ZM11.4835 36.5791L10.1461 33.3267L11.3463 31.3681C11.5605 31.0186 11.4508 30.5616 11.1013 30.3475C10.7518 30.1334 10.2948 30.243 10.0807 30.5925L8.8679 32.5717L5.35511 33.0433L10.4967 24.1002C12.1809 25.7684 14.3003 26.9977 16.6676 27.6001L11.4835 36.5791ZM19.9974 26.5314C13.3677 26.5314 7.97393 21.1377 7.97393 14.5079C7.97393 7.87811 13.3677 2.48438 19.9974 2.48438C26.6272 2.48438 32.0209 7.87811 32.0209 14.5079C32.0209 21.1377 26.6272 26.5314 19.9974 26.5314ZM31.1271 32.5717L29.9142 30.5925C29.7001 30.243 29.2431 30.1333 28.8936 30.3475C28.5441 30.5617 28.4345 31.0186 28.6487 31.3681L29.8488 33.3267L28.5114 36.5791L23.3274 27.6001C25.6947 26.9977 27.8141 25.7684 29.4982 24.1002L34.6398 33.0433L31.1271 32.5717Z" fill="url(#paint1_linear_2312_17276)"/>
<path d="M19.9946 4.85938C18.3384 4.85938 16.7043 5.28628 15.269 6.09409C14.9117 6.29507 14.7851 6.74766 14.9861 7.10488C15.1871 7.46209 15.6397 7.58886 15.9969 7.38773C17.2105 6.70476 18.5929 6.34376 19.9946 6.34376C24.4963 6.34376 28.1588 10.0062 28.1588 14.5079C28.1588 15.738 27.8922 16.9199 27.3666 18.0208C27.1901 18.3907 27.3467 18.8337 27.7166 19.0104C27.8199 19.0597 27.9287 19.083 28.0359 19.083C28.3129 19.083 28.5788 18.927 28.7062 18.6604C29.3279 17.3582 29.6431 15.9611 29.6431 14.5079C29.6431 9.18769 25.3149 4.85938 19.9946 4.85938Z" fill="url(#paint2_linear_2312_17276)"/>
<path d="M26.9021 20.1783C26.608 19.8929 26.1381 19.8999 25.8526 20.194L25.8362 20.211C25.5498 20.5042 25.5554 20.9742 25.8486 21.2605C25.993 21.4014 26.1801 21.4717 26.3671 21.4717C26.5599 21.4717 26.7528 21.3969 26.8982 21.248L26.9178 21.2278C27.2033 20.9337 27.1962 20.4638 26.9021 20.1783Z" fill="url(#paint3_linear_2312_17276)"/>
<path d="M24.9423 21.9541C24.7445 21.5951 24.2931 21.4644 23.9341 21.6623C22.7369 22.322 21.3765 22.6707 20.0001 22.6707C15.4984 22.6707 11.836 19.0083 11.836 14.5066C11.836 13.3273 12.0818 12.19 12.5663 11.1262C12.7363 10.7532 12.5716 10.3131 12.1986 10.1431C11.8256 9.97322 11.3854 10.1378 11.2155 10.5109C10.6422 11.7692 10.3516 13.1135 10.3516 14.5066C10.3516 19.8268 14.6799 24.1551 20.0001 24.1551C21.6263 24.1551 23.2344 23.7427 24.6505 22.9623C25.0095 22.7645 25.1402 22.3131 24.9423 21.9541Z" fill="url(#paint4_linear_2312_17276)"/>
<path d="M13.9816 7.89638C13.6816 7.61694 13.212 7.63371 12.9326 7.93356L12.9161 7.9513C12.6378 8.25218 12.656 8.72177 12.9569 9.00009C13.0996 9.1322 13.2803 9.19751 13.4607 9.19751C13.6603 9.19751 13.8594 9.11743 14.0057 8.95934L14.0187 8.94531C14.2981 8.64539 14.2815 8.17574 13.9816 7.89638Z" fill="url(#paint5_linear_2312_17276)"/>
<defs>
<linearGradient id="paint0_linear_2312_17276" x1="14.0234" y1="14.341" x2="25.9704" y2="14.341" gradientUnits="userSpaceOnUse">
<stop stop-color="#2aa2ff"/>
<stop offset="1" stop-color="#1b75bb"/>
</linearGradient>
<linearGradient id="paint1_linear_2312_17276" x1="3.21875" y1="20" x2="36.7763" y2="20" gradientUnits="userSpaceOnUse">
<stop stop-color="#2aa2ff"/>
<stop offset="1" stop-color="#1b75bb"/>
</linearGradient>
<linearGradient id="paint2_linear_2312_17276" x1="14.8906" y1="11.9712" x2="29.6431" y2="11.9712" gradientUnits="userSpaceOnUse">
<stop stop-color="#2aa2ff"/>
<stop offset="1" stop-color="#1b75bb"/>
</linearGradient>
<linearGradient id="paint3_linear_2312_17276" x1="25.625" y1="20.7202" x2="27.1274" y2="20.7202" gradientUnits="userSpaceOnUse">
<stop stop-color="#2aa2ff"/>
<stop offset="1" stop-color="#1b75bb"/>
</linearGradient>
<linearGradient id="paint4_linear_2312_17276" x1="10.3516" y1="17.1156" x2="25.0346" y2="17.1156" gradientUnits="userSpaceOnUse">
<stop stop-color="#2aa2ff"/>
<stop offset="1" stop-color="#1b75bb"/>
</linearGradient>
<linearGradient id="paint5_linear_2312_17276" x1="12.7188" y1="8.44739" x2="14.2178" y2="8.44739" gradientUnits="userSpaceOnUse">
<stop stop-color="#2aa2ff"/>
<stop offset="1" stop-color="#1b75bb"/>
</linearGradient>
</defs>
</svg>
